<svg width="24" height="24" viewBox="0 0 24 24" fill="none" xmlns="http://www.w3.org/2000/svg">
    <path d="M17.9996 6.12787L18 15.75C18 18.75 17.25 19.5 14.4966 19.492L14.25 19.5L7.6284 19.5011C7.93758 20.3744 8.77073 21 9.75 21H15C18 21 19.5 19.492 19.5 16.5V8.25C19.5 7.27017 18.8737 6.43663 17.9996 6.12787ZM6.75 3C5.50736 3 4.5 4.00736 4.5 5.25V15.75C4.5 16.9926 5.50736 18 6.75 18H14.25C15.75 18 16.5 17.25 16.5 15.75V5.25C16.5 4.00736 15.4926 3 14.25 3H6.75ZM6.75 4.5H14.25C14.6642 4.5 15 4.83579 15 5.25V15.75C15 16.1642 14.6642 16.5 14.25 16.5H6.75C6.33579 16.5 6 16.1642 6 15.75V5.25C6 4.83579 6.33579 4.5 6.75 4.5Z" fill="#180D01"/>
</svg>
