<svg width="40" height="40" viewBox="0 0 40 40" fill="none" xmlns="http://www.w3.org/2000/svg">
    <rect width="40" height="40" rx="16" fill="#FA7C54" fill-opacity="0.12"/>
    <rect x="0.5" y="0.5" width="39" height="39" rx="15.5" stroke="#CACAD4" stroke-opacity="0.05"/>
    <path d="M29.76 23.92L23.36 12.4C22.5 10.85 21.31 10 20 10C18.69 10 17.5 10.85 16.64 12.4L10.24 23.92C9.42998 25.39 9.33998 26.8 9.98998 27.91C10.64 29.02 11.92 29.63 13.6 29.63H26.4C28.08 29.63 29.36 29.02 30.01 27.91C30.66 26.8 30.57 25.38 29.76 23.92ZM19.25 17C19.25 16.59 19.59 16.25 20 16.25C20.41 16.25 20.75 16.59 20.75 17V22C20.75 22.41 20.41 22.75 20 22.75C19.59 22.75 19.25 22.41 19.25 22V17ZM20.71 25.71C20.66 25.75 20.61 25.79 20.56 25.83C20.5 25.87 20.44 25.9 20.38 25.92C20.32 25.95 20.26 25.97 20.19 25.98C20.13 25.99 20.06 26 20 26C19.94 26 19.87 25.99 19.8 25.98C19.74 25.97 19.68 25.95 19.62 25.92C19.56 25.9 19.5 25.87 19.44 25.83C19.39 25.79 19.34 25.75 19.29 25.71C19.11 25.52 19 25.26 19 25C19 24.74 19.11 24.48 19.29 24.29C19.34 24.25 19.39 24.21 19.44 24.17C19.5 24.13 19.56 24.1 19.62 24.08C19.68 24.05 19.74 24.03 19.8 24.02C19.93 23.99 20.07 23.99 20.19 24.02C20.26 24.03 20.32 24.05 20.38 24.08C20.44 24.1 20.5 24.13 20.56 24.17C20.61 24.21 20.66 24.25 20.71 24.29C20.89 24.48 21 24.74 21 25C21 25.26 20.89 25.52 20.71 25.71Z" fill="#FA7C54"/>
</svg>
