<svg width="24" height="24" viewBox="0 0 24 24" fill="none" xmlns="http://www.w3.org/2000/svg">
    <path d="M12 2C11.0111 2 10.0444 2.29324 9.22215 2.84265C8.3999 3.39206 7.75904 4.17295 7.3806 5.08658C7.00216 6.00021 6.90315 7.00555 7.09607 7.97545C7.289 8.94536 7.7652 9.83627 8.46447 10.5355C9.16373 11.2348 10.0546 11.711 11.0245 11.9039C11.9945 12.0969 12.9998 11.9978 13.9134 11.6194C14.827 11.241 15.6079 10.6001 16.1573 9.77785C16.7068 8.95561 17 7.98891 17 7C17 5.67392 16.4732 4.40215 15.5355 3.46447C14.5979 2.52678 13.3261 2 12 2ZM21 21V20C21 18.1435 20.2625 16.363 18.9497 15.0503C17.637 13.7375 15.8565 13 14 13H10C8.14348 13 6.36301 13.7375 5.05025 15.0503C3.7375 16.363 3 18.1435 3 20V21H5H19H21Z" fill="#7C6699"/>
</svg>
