<svg width="32" height="21" viewBox="0 0 32 21" fill="none" xmlns="http://www.w3.org/2000/svg">
<g clip-path="url(#clip0_4080_5420)">
<rect width="32" height="21" fill="white"/>
<path d="M0 14H32V21H0V14Z" fill="#1EB53A"/>
<path d="M0 0H32V7H0V0Z" fill="#0099B5"/>
<path d="M0 6.71973H32V14.2797H0V6.71973Z" fill="#CE1126"/>
<path d="M0 7.13965H32V13.8596H0V7.13965Z" fill="white"/>
<path d="M6.27987 5.76101C7.6272 5.76101 8.71942 4.68341 8.71942 3.35414C8.71942 2.02486 7.6272 0.947266 6.27987 0.947266C4.93255 0.947266 3.84033 2.02486 3.84033 3.35414C3.84033 4.68341 4.93255 5.76101 6.27987 5.76101Z" fill="white"/>
<path d="M7.09238 5.76101C8.4397 5.76101 9.53192 4.68341 9.53192 3.35414C9.53192 2.02486 8.4397 0.947266 7.09238 0.947266C5.74505 0.947266 4.65283 2.02486 4.65283 3.35414C4.65283 4.68341 5.74505 5.76101 7.09238 5.76101Z" fill="#0099B5"/>
<path d="M11.6452 4.79883L11.4907 5.25613L11.7265 5.33636" fill="white"/>
<path d="M11.6448 4.79883L11.7993 5.25613L11.5635 5.33636" fill="white"/>
<path d="M12.1077 5.13788L11.6205 5.1191L11.6244 5.37371" fill="white"/>
<path d="M12.1052 5.13458L11.7231 5.4189L11.5667 5.21088" fill="white"/>
<path d="M11.1858 5.13458L11.568 5.4189L11.7243 5.21088" fill="white"/>
<path d="M11.1838 5.13788L11.671 5.1191L11.6671 5.37371" fill="white"/>
<path d="M11.9355 5.67072L11.7803 5.2103L11.5461 5.27713" fill="white"/>
<path d="M11.9341 5.67205L11.5357 5.38511L11.6727 5.18716" fill="white"/>
<path d="M11.3595 5.66686L11.7561 5.39191L11.6082 5.18723" fill="white"/>
<path d="M11.3607 5.66812L11.5017 5.20925L11.7439 5.28522" fill="white"/>
<path d="M11.6457 2.87305L11.4912 3.33035L11.727 3.41058" fill="white"/>
<path d="M11.6453 2.87305L11.7998 3.33035L11.564 3.41058" fill="white"/>
<path d="M12.1082 3.2121L11.621 3.19332L11.6249 3.44793" fill="white"/>
<path d="M12.1057 3.2088L11.7235 3.49312L11.5672 3.2851" fill="white"/>
<path d="M11.1858 3.2088L11.568 3.49312L11.7243 3.2851" fill="white"/>
<path d="M11.1838 3.2121L11.671 3.19332L11.6671 3.44793" fill="white"/>
<path d="M11.9355 3.74592L11.7803 3.2855L11.5461 3.35233" fill="white"/>
<path d="M11.9336 3.74725L11.5352 3.4603L11.6722 3.26235" fill="white"/>
<path d="M11.3595 3.74205L11.7561 3.4671L11.6082 3.26242" fill="white"/>
<path d="M11.3607 3.74331L11.5017 3.28445L11.7439 3.36042" fill="white"/>
<path d="M11.6457 0.947266L11.4912 1.40457L11.727 1.4848" fill="white"/>
<path d="M11.6453 0.947266L11.7998 1.40457L11.564 1.4848" fill="white"/>
<path d="M12.1082 1.28632L11.621 1.26754L11.6249 1.52215" fill="white"/>
<path d="M12.1057 1.28302L11.7235 1.56734L11.5672 1.35931" fill="white"/>
<path d="M11.1858 1.28302L11.568 1.56734L11.7243 1.35931" fill="white"/>
<path d="M11.1838 1.28632L11.671 1.26754L11.6671 1.52215" fill="white"/>
<path d="M11.9355 1.81916L11.7803 1.35874L11.5461 1.42558" fill="white"/>
<path d="M11.9341 1.82049L11.5357 1.53355L11.6727 1.3356" fill="white"/>
<path d="M11.3599 1.8153L11.7566 1.54034L11.6087 1.33566" fill="white"/>
<path d="M11.3612 1.81656L11.5022 1.35769L11.7444 1.43366" fill="white"/>
<path d="M13.5969 4.79883L13.4424 5.25613L13.6782 5.33636" fill="white"/>
<path d="M13.5965 4.79883L13.751 5.25613L13.5152 5.33636" fill="white"/>
<path d="M14.0593 5.13788L13.5722 5.1191L13.576 5.37371" fill="white"/>
<path d="M14.0569 5.13458L13.6747 5.4189L13.5183 5.21088" fill="white"/>
<path d="M13.1375 5.13458L13.5196 5.4189L13.676 5.21088" fill="white"/>
<path d="M13.1355 5.13788L13.6226 5.1191L13.6188 5.37371" fill="white"/>
<path d="M13.8872 5.67072L13.7319 5.2103L13.4978 5.27713" fill="white"/>
<path d="M13.8858 5.67205L13.4873 5.38511L13.6244 5.18716" fill="white"/>
<path d="M13.3116 5.66686L13.7083 5.39191L13.5603 5.18723" fill="white"/>
<path d="M13.3129 5.66812L13.4538 5.20925L13.6961 5.28522" fill="white"/>
<path d="M13.5974 2.87305L13.4429 3.33035L13.6787 3.41058" fill="white"/>
<path d="M13.597 2.87305L13.7515 3.33035L13.5156 3.41058" fill="white"/>
<path d="M14.0598 3.2121L13.5727 3.19332L13.5765 3.44793" fill="white"/>
<path d="M14.0574 3.2088L13.6752 3.49312L13.5188 3.2851" fill="white"/>
<path d="M13.1375 3.2088L13.5196 3.49312L13.676 3.2851" fill="white"/>
<path d="M13.1355 3.2121L13.6226 3.19332L13.6188 3.44793" fill="white"/>
<path d="M13.8872 3.74592L13.7319 3.2855L13.4978 3.35233" fill="white"/>
<path d="M13.8858 3.74725L13.4873 3.4603L13.6244 3.26235" fill="white"/>
<path d="M13.3116 3.74205L13.7083 3.4671L13.5603 3.26242" fill="white"/>
<path d="M13.3129 3.74331L13.4538 3.28445L13.6961 3.36042" fill="white"/>
<path d="M13.5974 0.947266L13.4429 1.40457L13.6787 1.4848" fill="white"/>
<path d="M13.597 0.947266L13.7515 1.40457L13.5156 1.4848" fill="white"/>
<path d="M14.0598 1.28632L13.5727 1.26754L13.5765 1.52215" fill="white"/>
<path d="M14.0574 1.28302L13.6752 1.56734L13.5188 1.35931" fill="white"/>
<path d="M13.1379 1.28399L13.5201 1.56832L13.6765 1.36029" fill="white"/>
<path d="M13.1355 1.2873L13.6226 1.26851L13.6188 1.52313" fill="white"/>
<path d="M13.8872 1.82014L13.7319 1.35972L13.4978 1.42655" fill="white"/>
<path d="M13.8858 1.82147L13.4873 1.53452L13.6244 1.33657" fill="white"/>
<path d="M13.3111 1.81627L13.7078 1.54132L13.5598 1.33664" fill="white"/>
<path d="M13.3129 1.81753L13.4538 1.35867L13.6961 1.43464" fill="white"/>
<path d="M15.549 4.79883L15.3945 5.25613L15.6304 5.33636" fill="white"/>
<path d="M15.5496 4.79883L15.7041 5.25613L15.4683 5.33636" fill="white"/>
<path d="M16.0115 5.13788L15.5243 5.1191L15.5282 5.37371" fill="white"/>
<path d="M16.009 5.13458L15.6269 5.4189L15.4705 5.21088" fill="white"/>
<path d="M15.0891 5.13556L15.4713 5.41988L15.6277 5.21185" fill="white"/>
<path d="M15.0872 5.13886L15.5743 5.12008L15.5704 5.37469" fill="white"/>
<path d="M15.8388 5.67072L15.6836 5.2103L15.4494 5.27713" fill="white"/>
<path d="M15.8374 5.67205L15.439 5.38511L15.576 5.18716" fill="white"/>
<path d="M15.2628 5.66686L15.6595 5.39191L15.5115 5.18723" fill="white"/>
<path d="M15.2641 5.66812L15.405 5.20925L15.6473 5.28522" fill="white"/>
<path d="M15.5485 2.87305L15.394 3.33035L15.6299 3.41058" fill="white"/>
<path d="M15.5491 2.87305L15.7036 3.33035L15.4678 3.41058" fill="white"/>
<path d="M16.011 3.2121L15.5238 3.19332L15.5277 3.44793" fill="white"/>
<path d="M16.0085 3.2088L15.6264 3.49312L15.47 3.2851" fill="white"/>
<path d="M15.0891 3.2088L15.4713 3.49312L15.6277 3.2851" fill="white"/>
<path d="M15.0872 3.2121L15.5743 3.19332L15.5704 3.44793" fill="white"/>
<path d="M15.8383 3.74592L15.6831 3.2855L15.4489 3.35233" fill="white"/>
<path d="M15.8369 3.74725L15.4385 3.4603L15.5755 3.26235" fill="white"/>
<path d="M15.2623 3.74205L15.659 3.4671L15.511 3.26242" fill="white"/>
<path d="M15.2636 3.74331L15.4045 3.28445L15.6468 3.36042" fill="white"/>
<path d="M15.5485 0.947266L15.394 1.40457L15.6299 1.4848" fill="white"/>
<path d="M15.5491 0.947266L15.7036 1.40457L15.4678 1.4848" fill="white"/>
<path d="M16.011 1.28632L15.5238 1.26754L15.5277 1.52215" fill="white"/>
<path d="M16.0085 1.28302L15.6264 1.56734L15.47 1.35931" fill="white"/>
<path d="M15.0891 1.28399L15.4713 1.56832L15.6277 1.36029" fill="white"/>
<path d="M15.0867 1.2873L15.5738 1.26851L15.5699 1.52313" fill="white"/>
<path d="M15.8383 1.81916L15.6831 1.35874L15.4489 1.42557" fill="white"/>
<path d="M15.8369 1.82049L15.4385 1.53354L15.5755 1.3356" fill="white"/>
<path d="M15.2623 1.8153L15.659 1.54034L15.511 1.33566" fill="white"/>
<path d="M15.2636 1.81656L15.4045 1.35769L15.6468 1.43366" fill="white"/>
<path d="M7.7424 4.79883L7.58789 5.25613L7.82371 5.33636" fill="white"/>
<path d="M7.74198 4.79883L7.89648 5.25613L7.66066 5.33636" fill="white"/>
<path d="M8.20484 5.13788L7.71769 5.1191L7.72155 5.37371" fill="white"/>
<path d="M8.20239 5.13458L7.82022 5.4189L7.66384 5.21088" fill="white"/>
<path d="M7.28296 5.13556L7.66513 5.41988L7.82151 5.21185" fill="white"/>
<path d="M7.28051 5.13886L7.76767 5.12008L7.7638 5.37469" fill="white"/>
<path d="M8.0322 5.6717L7.87697 5.21128L7.64278 5.27811" fill="white"/>
<path d="M8.03079 5.67303L7.63234 5.38608L7.76939 5.18813" fill="white"/>
<path d="M7.45614 5.66784L7.85282 5.39288L7.70485 5.1882" fill="white"/>
<path d="M7.45742 5.6691L7.59836 5.21023L7.84062 5.2862" fill="white"/>
<path d="M9.69357 4.79883L9.53906 5.25613L9.77488 5.33636" fill="white"/>
<path d="M9.69364 4.79883L9.84814 5.25613L9.61232 5.33636" fill="white"/>
<path d="M10.156 5.13788L9.66886 5.1191L9.67273 5.37371" fill="white"/>
<path d="M10.1536 5.13458L9.7714 5.4189L9.61502 5.21088" fill="white"/>
<path d="M9.23365 5.13556L9.61581 5.41988L9.77219 5.21185" fill="white"/>
<path d="M9.23168 5.13886L9.71884 5.12008L9.71497 5.37469" fill="white"/>
<path d="M9.98337 5.67072L9.82814 5.2103L9.59395 5.27713" fill="white"/>
<path d="M9.98196 5.67205L9.58351 5.38511L9.72056 5.18716" fill="white"/>
<path d="M9.40731 5.66686L9.80399 5.39191L9.65602 5.18723" fill="white"/>
<path d="M9.40859 5.66812L9.54953 5.20925L9.79179 5.28522" fill="white"/>
<path d="M9.69357 2.87305L9.53906 3.33035L9.77488 3.41058" fill="white"/>
<path d="M9.69364 2.87305L9.84814 3.33035L9.61232 3.41058" fill="white"/>
<path d="M10.156 3.2121L9.66886 3.19332L9.67273 3.44793" fill="white"/>
<path d="M10.1536 3.2088L9.7714 3.49312L9.61502 3.2851" fill="white"/>
<path d="M9.23414 3.20977L9.6163 3.4941L9.77268 3.28607" fill="white"/>
<path d="M9.23168 3.21308L9.71884 3.19429L9.71497 3.44891" fill="white"/>
<path d="M9.98386 3.74494L9.82863 3.28452L9.59444 3.35135" fill="white"/>
<path d="M9.98245 3.74627L9.584 3.45932L9.72105 3.26138" fill="white"/>
<path d="M9.4078 3.74108L9.80448 3.46612L9.65651 3.26145" fill="white"/>
<path d="M9.40908 3.74234L9.55002 3.28347L9.79228 3.35944" fill="white"/>
</g>
<defs>
<clipPath id="clip0_4080_5420">
<rect width="32" height="21" fill="white"/>
</clipPath>
</defs>
</svg>
